# xmcd
#
# Track frame offsets:
#	150
#	70204
#	134122
#	162359
#	183114
#
# Disc length: 2941 seconds
#
# Revision: 0
# Processed by: cddbd v1.5.2PL0 Copyright (c) Steve Scherf et al.
# Submitted via: audiograbber 1.83.01
#
DISCID=440b7b05
DTITLE=Grateful Dead - 94-07-01 Shoreline Amphitheatre, Mountain View CA
DYEAR=1900
DGENRE=
TTITLE0=Drums
TTITLE1=Space
TTITLE2=The Last Time
TTITLE3=Attics Of My Life
TTITLE4=Sugar Magnolia
EXTD=
EXTT0=
EXTT1=
EXTT2=
EXTT3=
EXTT4=
PLAYORDER=
